<?xml version="1.0" standalone="no"?>
<!DOCTYPE svg PUBLIC "-//W3C//DTD SVG 20010904//EN"
 "http://www.w3.org/TR/2001/REC-SVG-20010904/DTD/svg10.dtd">
<svg version="1.0" xmlns="http://www.w3.org/2000/svg"
 width="128.000000pt" height="128.000000pt" viewBox="0 0 128.000000 128.000000"
 preserveAspectRatio="xMidYMid meet">

<g transform="translate(0.000000,128.000000) scale(0.100000,-0.100000)"
fill="#ffffff" stroke="none">
<path d="M476 1272 c-2 -4 44 -159 105 -343 60 -183 109 -337 109 -341 0 -5
-105 -8 -233 -8 -168 0 -236 -3 -245 -12 -13 -13 -17 -325 -4 -344 4 -6 14
-13 23 -16 13 -5 19 -26 24 -90 11 -127 -5 -118 211 -118 l184 0 10 26 c6 14
10 40 10 57 0 53 11 75 41 88 66 27 77 91 29 176 -29 51 -41 125 -22 137 4 2
39 -88 76 -202 38 -114 71 -213 73 -219 4 -10 -13 -13 -66 -13 -56 0 -73 -3
-78 -16 -11 -28 18 -34 172 -34 154 0 183 6 172 34 -5 13 -22 16 -79 16 l-73
1 -203 614 c-193 584 -215 641 -236 607z m-46 -862 c0 -116 -1 -120 -22 -125
-174 -39 -158 -50 -158 110 l0 135 90 0 90 0 0 -120z m246 104 c-3 -9 -6 -27
-6 -42 l0 -26 -33 32 c-33 32 -67 42 -67 20 0 -7 21 -33 46 -59 l46 -47 -16
-149 c-9 -81 -19 -160 -22 -176 l-6 -27 -153 0 c-176 0 -159 -10 -170 106 l-7
71 69 13 c122 23 113 9 113 165 l0 135 106 0 c93 0 105 -2 100 -16z m54 -259
c0 -23 -17 -45 -35 -45 -11 0 -11 33 1 90 l6 25 13 -25 c8 -14 14 -34 15 -45z"/>
<path d="M375 820 c-8 -14 3 -30 21 -30 8 0 14 9 14 20 0 21 -24 28 -35 10z"/>
<path d="M459 807 c-62 -47 -34 -137 44 -137 33 0 67 39 67 77 0 54 -70 92
-111 60z m65 -50 c8 -12 7 -21 -5 -32 -21 -21 -49 -9 -49 20 0 36 34 44 54 12z"/>
<path d="M281 684 c-30 -38 -9 -84 40 -84 38 0 63 37 50 72 -17 44 -60 50 -90
12z m49 -34 c0 -5 -4 -10 -10 -10 -5 0 -10 5 -10 10 0 6 5 10 10 10 6 0 10 -4
10 -10z"/>
</g>
</svg>
