<?xml version="1.0" standalone="no"?>
<!DOCTYPE svg PUBLIC "-//W3C//DTD SVG 20010904//EN"
 "http://www.w3.org/TR/2001/REC-SVG-20010904/DTD/svg10.dtd">
<svg version="1.0" xmlns="http://www.w3.org/2000/svg"
 width="128.000000pt" height="128.000000pt" viewBox="0 0 128.000000 128.000000"
 preserveAspectRatio="xMidYMid meet">

<g transform="translate(0.000000,128.000000) scale(0.100000,-0.100000)"
fill="#ffffff" stroke="none">
<path d="M83 1221 c-3 -11 -13 -21 -24 -24 -25 -7 -25 -27 0 -34 11 -3 21 -13
24 -24 3 -10 10 -19 17 -19 7 0 14 9 17 19 3 11 13 21 24 24 25 7 25 27 0 34
-11 3 -21 13 -24 24 -3 10 -10 19 -17 19 -7 0 -14 -9 -17 -19z"/>
<path d="M205 1190 c-13 -21 11 -31 61 -28 36 2 49 7 49 18 0 19 -99 27 -110
10z"/>
<path d="M719 1087 c-67 -19 -132 -61 -178 -114 -22 -27 -65 -76 -94 -110
-112 -129 -115 -276 -9 -394 l44 -49 -29 0 c-35 0 -102 31 -125 56 -36 41 -48
90 -48 201 0 91 3 113 20 138 15 23 20 47 20 103 0 65 -2 75 -19 79 -14 4 -21
15 -23 42 -4 50 -32 50 -36 0 -2 -27 -9 -38 -23 -42 -16 -4 -19 -14 -19 -64 0
-32 -5 -65 -10 -73 -17 -25 -30 7 -30 73 0 50 -3 60 -19 64 -14 4 -21 15 -23
42 -4 50 -32 50 -36 0 -2 -27 -9 -38 -23 -42 -17 -4 -19 -14 -19 -79 0 -54 5
-80 18 -98 13 -20 18 -54 23 -170 4 -129 8 -151 31 -202 37 -80 107 -151 187
-191 60 -29 74 -32 161 -32 88 0 101 3 162 33 46 23 82 50 115 88 26 30 67 76
89 102 117 133 123 284 16 403 l-44 49 29 0 c35 0 102 -31 125 -56 38 -43 48
-89 48 -221 0 -111 -3 -132 -20 -158 -15 -23 -20 -47 -20 -103 0 -65 2 -75 19
-79 14 -4 21 -15 23 -42 4 -50 32 -50 36 0 2 27 9 38 23 42 16 4 19 14 19 64
0 66 13 98 30 73 5 -8 10 -41 10 -73 0 -50 3 -60 19 -64 14 -4 21 -15 23 -42
4 -50 32 -50 36 0 2 27 9 38 23 42 17 4 19 14 19 79 0 54 -5 80 -17 98 -15 21
-19 55 -23 190 -5 151 -8 170 -32 222 -36 78 -107 152 -183 189 -74 36 -189
48 -266 26z m242 -59 c69 -32 135 -98 168 -168 23 -50 26 -69 31 -220 4 -135
8 -169 23 -190 11 -16 17 -43 17 -77 0 -46 -3 -53 -20 -53 -17 0 -20 7 -20 48
0 29 -7 57 -17 72 -15 21 -19 55 -23 190 -5 138 -9 172 -26 211 -31 66 -78
114 -142 146 -47 23 -70 28 -132 28 -76 0 -100 -8 -202 -66 -54 -30 -70 -19
-28 20 99 92 248 116 371 59z m-26 -76 c47 -24 95 -73 121 -122 15 -29 19 -63
22 -192 3 -146 2 -160 -17 -192 -13 -21 -21 -50 -21 -80 0 -39 -3 -46 -20 -46
-17 0 -20 7 -20 53 0 35 7 62 20 82 17 26 20 47 20 171 0 136 -1 144 -28 195
-20 39 -41 62 -77 84 -49 30 -82 34 -209 26 -54 -4 -49 13 11 35 51 19 148 12
198 -14z m-815 -40 c0 -29 7 -57 18 -72 13 -20 18 -54 22 -170 5 -117 10 -154
26 -191 30 -66 78 -114 142 -146 47 -23 70 -28 132 -28 76 0 98 7 202 66 21
11 43 19 50 17 20 -7 -50 -67 -112 -96 -46 -22 -69 -26 -140 -27 -71 0 -94 4
-140 26 -70 33 -136 99 -169 169 -23 49 -26 72 -31 200 -4 116 -8 150 -22 170
-12 16 -18 43 -18 77 0 46 3 53 20 53 17 0 20 -7 20 -48z m160 -4 c0 -36 -7
-63 -20 -83 -17 -26 -20 -47 -20 -151 0 -114 2 -125 28 -175 20 -39 41 -62 77
-84 49 -30 82 -34 209 -26 60 4 43 -20 -29 -40 -85 -24 -189 6 -251 73 -60 63
-68 90 -72 240 -4 126 -2 140 17 171 13 22 21 51 21 81 0 39 3 46 20 46 17 0
20 -7 20 -52z m434 -20 c86 -26 166 -136 166 -228 0 -124 -116 -240 -240 -240
-124 0 -240 116 -240 240 0 63 23 114 75 165 70 71 145 90 239 63z"/>
<path d="M572 849 c-48 -14 -109 -80 -123 -131 -23 -89 12 -182 88 -229 57
-36 154 -34 210 3 62 41 88 90 88 168 0 77 -26 127 -85 166 -43 29 -125 39
-178 23z m156 -56 c64 -48 88 -126 59 -194 -38 -92 -162 -125 -241 -65 -47 36
-70 86 -63 143 5 51 46 109 91 129 41 19 120 12 154 -13z"/>
<path d="M595 771 c-45 -20 -70 -60 -70 -112 0 -42 5 -53 33 -81 28 -28 39
-33 82 -33 43 0 54 5 82 33 28 28 33 39 33 82 0 42 -5 54 -31 81 -33 33 -92
46 -129 30z m100 -56 c50 -49 15 -135 -55 -135 -19 0 -40 9 -55 25 -50 49 -15
135 55 135 19 0 40 -9 55 -25z"/>
<path d="M1163 141 c-3 -11 -13 -21 -24 -24 -10 -3 -19 -10 -19 -17 0 -7 9
-14 19 -17 11 -3 21 -13 24 -24 3 -10 10 -19 17 -19 7 0 14 9 17 19 3 11 13
21 24 24 10 3 19 10 19 17 0 7 -9 14 -19 17 -11 3 -21 13 -24 24 -7 25 -27 25
-34 0z"/>
<path d="M965 110 c-13 -21 11 -31 61 -28 36 2 49 7 49 18 0 19 -99 27 -110
10z"/>
</g>
</svg>
