<?xml version="1.0" standalone="no"?>
<!DOCTYPE svg PUBLIC "-//W3C//DTD SVG 20010904//EN"
 "http://www.w3.org/TR/2001/REC-SVG-20010904/DTD/svg10.dtd">
<svg version="1.0" xmlns="http://www.w3.org/2000/svg"
 width="128.000000pt" height="128.000000pt" viewBox="0 0 128.000000 128.000000"
 preserveAspectRatio="xMidYMid meet">

<g transform="translate(0.000000,128.000000) scale(0.100000,-0.100000)"
fill="#ffffff" stroke="none">
<path d="M170 1260 c-11 -11 -20 -29 -20 -39 0 -16 -8 -20 -37 -23 l-38 -3 0
-95 0 -95 38 -3 c29 -3 37 -7 37 -23 0 -41 34 -59 115 -59 l75 0 0 -60 c0 -51
4 -65 25 -85 27 -28 42 -30 78 -14 32 15 47 49 47 109 l0 49 153 3 c127 3 152
5 152 18 0 13 -25 15 -152 18 l-153 3 0 83 c0 64 4 87 16 97 25 21 48 -2 54
-54 7 -58 33 -87 76 -87 23 0 38 7 53 26 18 23 21 41 21 121 l0 93 178 -2 177
-3 0 -135 0 -135 -110 -5 c-94 -4 -110 -7 -113 -22 -3 -16 7 -18 112 -18 112
0 115 1 135 26 15 20 21 41 21 80 0 50 2 54 24 54 31 0 36 -15 36 -111 0 -73
-2 -80 -22 -88 -13 -5 -124 -26 -248 -47 -259 -44 -270 -50 -270 -129 0 -45 0
-45 -35 -45 -34 0 -35 -1 -35 -39 0 -22 -4 -43 -10 -46 -6 -4 -10 -100 -10
-255 l0 -250 29 -32 c26 -29 35 -33 81 -33 46 0 55 4 81 33 28 31 29 35 29
137 0 84 -3 105 -14 105 -11 0 -15 -22 -18 -101 -3 -92 -5 -103 -27 -120 -30
-24 -72 -24 -102 0 -24 19 -24 20 -24 248 l0 228 78 3 77 3 0 -111 c0 -91 3
-110 15 -110 13 0 15 20 15 124 0 73 -4 127 -10 131 -5 3 -10 24 -10 46 0 38
-1 39 -35 39 -35 0 -35 0 -35 44 0 25 4 47 8 50 5 3 116 23 248 46 296 51 288
45 282 188 -3 84 -5 96 -27 113 -13 10 -34 19 -47 19 -22 0 -24 4 -24 54 0 39
-6 60 -21 80 l-20 26 -440 0 c-426 0 -440 -1 -459 -20z m170 -81 c0 -52 2 -60
18 -57 13 2 18 15 20 61 l3 57 144 0 145 0 0 -95 c0 -79 -3 -96 -17 -104 -29
-15 -53 5 -53 44 0 47 -18 82 -49 95 -33 13 -75 0 -90 -29 -7 -11 -11 -86 -11
-179 0 -170 -6 -191 -49 -177 -19 6 -21 16 -23 143 -3 121 -5 137 -20 140 -16
3 -18 -5 -18 -58 l0 -61 -72 3 -73 3 -3 124 c-1 69 0 131 2 138 4 9 27 13 76
13 l70 0 0 -61z m-195 -79 c0 -54 -3 -65 -17 -68 -16 -3 -18 5 -18 68 0 63 2
71 18 68 14 -3 17 -14 17 -68z m555 -495 c0 -23 -3 -25 -50 -25 -47 0 -50 2
-50 25 0 23 3 25 50 25 47 0 50 -2 50 -25z"/>
</g>
</svg>
