<?xml version="1.0" standalone="no"?>
<!DOCTYPE svg PUBLIC "-//W3C//DTD SVG 20010904//EN"
 "http://www.w3.org/TR/2001/REC-SVG-20010904/DTD/svg10.dtd">
<svg version="1.0" xmlns="http://www.w3.org/2000/svg"
 width="128.000000pt" height="128.000000pt" viewBox="0 0 128.000000 128.000000"
 preserveAspectRatio="xMidYMid meet">

<g transform="translate(0.000000,128.000000) scale(0.100000,-0.100000)"
fill="#ffffff" stroke="none">
<path d="M761 1236 c-25 -26 -23 -56 3 -56 18 0 58 49 53 64 -7 21 -33 17 -56
-8z"/>
<path d="M985 1251 c-9 -16 3 -31 26 -31 14 0 19 6 17 17 -4 20 -33 29 -43 14z"/>
<path d="M1171 1221 c-17 -11 -7 -41 13 -41 22 0 30 20 15 36 -9 8 -19 10 -28
5z"/>
<path d="M473 1018 c-95 -95 -177 -186 -183 -202 -17 -47 -2 -92 51 -150 27
-30 49 -60 49 -69 0 -8 -81 -87 -181 -177 -124 -111 -186 -174 -196 -198 -18
-42 -13 -101 12 -138 38 -58 131 -82 194 -50 15 8 99 96 185 195 87 100 165
181 173 181 8 0 37 -20 64 -44 28 -25 65 -50 84 -56 65 -21 95 -2 278 178 92
91 167 173 167 181 0 17 -498 521 -515 521 -6 0 -88 -78 -182 -172z m169 -1
c-34 -34 -62 -70 -62 -80 0 -33 35 -17 97 45 l63 62 35 -34 35 -34 -65 -67
c-44 -46 -63 -72 -59 -83 11 -28 34 -17 100 46 l64 62 35 -34 35 -34 -66 -67
c-45 -46 -65 -72 -61 -83 10 -27 26 -19 96 49 l67 65 34 -35 34 -35 -62 -63
c-62 -62 -78 -97 -45 -97 10 0 46 28 80 62 l63 62 27 -27 28 -27 -123 -123
-122 -122 -230 230 -230 230 122 122 123 123 25 -25 24 -25 -62 -63z m188
-629 c0 -16 -63 -39 -87 -33 -14 3 -49 28 -78 55 -57 55 -92 63 -134 34 -22
-16 -24 -15 -72 32 l-49 49 19 39 c24 46 20 58 -34 116 -70 74 -78 101 -44
145 l22 27 228 -228 c126 -126 229 -232 229 -236z m-408 55 c26 -26 48 -51 48
-56 0 -12 -259 -305 -276 -311 -24 -9 -73 -7 -95 4 -30 17 -52 68 -44 106 5
28 33 58 156 169 83 74 154 135 157 135 3 0 28 -21 54 -47z"/>
<path d="M252 307 c-71 -72 -89 -107 -54 -107 26 0 166 145 159 164 -11 28
-31 17 -105 -57z"/>
<path d="M113 154 c-7 -20 17 -37 34 -23 15 13 6 39 -13 39 -8 0 -17 -7 -21
-16z"/>
<path d="M880 1145 c-41 -42 -43 -46 -28 -61 15 -15 20 -13 64 28 33 31 45 50
41 62 -10 26 -30 19 -77 -29z"/>
<path d="M1030 1085 c-77 -75 -93 -106 -60 -113 8 -1 51 34 95 78 74 75 78 81
63 97 -16 15 -22 11 -98 -62z"/>
<path d="M1241 1076 c-14 -17 -7 -36 14 -36 22 0 29 20 13 36 -13 13 -16 13
-27 0z"/>
<path d="M1113 957 c-63 -64 -66 -68 -50 -85 16 -16 21 -13 84 51 64 63 67 68
51 84 -17 16 -21 13 -85 -50z"/>
<path d="M1185 815 c-29 -28 -29 -48 1 -53 25 -4 57 30 52 54 -5 28 -25 28
-53 -1z"/>
</g>
</svg>
