<?xml version="1.0" standalone="no"?>
<!DOCTYPE svg PUBLIC "-//W3C//DTD SVG 20010904//EN"
 "http://www.w3.org/TR/2001/REC-SVG-20010904/DTD/svg10.dtd">
<svg version="1.0" xmlns="http://www.w3.org/2000/svg"
 width="128.000000pt" height="128.000000pt" viewBox="0 0 128.000000 128.000000"
 preserveAspectRatio="xMidYMid meet">

<g transform="translate(0.000000,128.000000) scale(0.100000,-0.100000)"
fill="#ffffff" stroke="none">
<path d="M693 1262 c-111 -39 -190 -123 -215 -229 -10 -40 -17 -53 -33 -55
-18 -3 -20 -11 -23 -81 -3 -72 -1 -79 18 -84 19 -5 20 -12 20 -219 0 -217 6
-251 37 -209 10 14 13 67 13 222 l0 203 135 0 135 0 -2 -287 c-3 -282 -3 -288
-23 -285 -11 2 -31 12 -45 23 -71 55 -69 54 -98 30 -63 -50 -77 -56 -128 -56
-39 0 -60 6 -81 23 -73 58 -71 57 -101 30 -79 -75 -166 -77 -239 -6 -32 31
-63 33 -63 4 0 -19 65 -75 109 -93 53 -23 130 -12 185 26 40 28 45 29 57 14
22 -26 90 -53 134 -53 37 0 97 23 138 52 14 10 20 10 35 0 40 -29 100 -52 137
-52 44 0 112 27 134 53 12 15 17 14 57 -14 55 -38 132 -49 185 -26 44 18 109
74 109 93 0 29 -31 27 -63 -4 -57 -55 -120 -66 -185 -33 -20 10 -46 28 -56 40
-11 12 -22 21 -27 21 -4 0 -26 -16 -49 -35 -72 -61 -70 -69 -70 245 0 267 1
281 20 300 36 36 23 160 -17 160 -13 0 -12 5 7 25 22 24 28 25 179 27 148 3
156 4 156 23 0 19 -7 20 -167 20 l-167 0 -30 -29 c-17 -16 -33 -38 -37 -48 -5
-16 -18 -18 -130 -18 -144 0 -144 0 -98 95 27 58 62 93 128 128 39 21 57 22
321 27 272 5 280 6 280 25 0 19 -7 20 -265 22 -233 2 -271 0 -317 -15z m127
-367 l0 -35 -175 0 -175 0 0 35 0 35 175 0 175 0 0 -35z"/>
<path d="M1234 1065 c-4 -9 -2 -21 4 -27 15 -15 44 -1 40 19 -4 23 -36 29 -44
8z"/>
<path d="M560 611 c0 -123 9 -153 37 -116 9 13 13 49 13 111 0 106 -5 124 -31
124 -18 0 -19 -9 -19 -119z"/>
<path d="M660 651 c0 -81 9 -102 35 -81 10 8 15 32 15 70 0 71 -7 90 -31 90
-17 0 -19 -8 -19 -79z"/>
<path d="M667 473 c-11 -10 -8 -91 3 -98 18 -11 40 16 40 49 0 41 -24 68 -43
49z"/>
<path d="M463 304 c-8 -21 13 -42 28 -27 13 13 5 43 -11 43 -6 0 -13 -7 -17
-16z"/>
<path d="M161 116 c-28 -33 95 -116 173 -116 45 0 113 27 134 53 12 14 18 12
58 -16 66 -47 162 -47 228 0 40 28 46 30 58 16 21 -26 89 -53 134 -53 48 0
135 41 164 78 18 22 19 28 7 40 -13 12 -21 9 -61 -22 -79 -60 -161 -58 -221 4
-34 36 -46 37 -71 9 -27 -30 -88 -59 -124 -59 -36 0 -97 29 -124 59 -25 28
-37 27 -71 -9 -59 -62 -142 -64 -220 -5 -52 40 -49 39 -64 21z"/>
</g>
</svg>
