<?xml version="1.0" standalone="no"?>
<!DOCTYPE svg PUBLIC "-//W3C//DTD SVG 20010904//EN"
 "http://www.w3.org/TR/2001/REC-SVG-20010904/DTD/svg10.dtd">
<svg version="1.0" xmlns="http://www.w3.org/2000/svg"
 width="128.000000pt" height="128.000000pt" viewBox="0 0 128.000000 128.000000"
 preserveAspectRatio="xMidYMid meet">

<g transform="translate(0.000000,128.000000) scale(0.100000,-0.100000)"
fill="#ffffff" stroke="none">
<path d="M1083 1219 c-59 -43 -83 -67 -88 -87 -4 -18 -64 -86 -175 -197 l-170
-169 -33 32 c-18 18 -37 32 -43 32 -18 0 -84 -75 -84 -96 0 -33 -28 -63 -83
-89 -72 -34 -378 -342 -397 -399 -47 -144 91 -283 236 -236 57 18 365 324 404
401 26 51 59 79 93 79 15 0 87 71 87 85 0 5 -14 24 -32 42 l-32 33 164 165
c109 109 176 169 198 176 25 8 50 33 93 92 32 44 59 85 59 90 0 13 -94 107
-106 107 -5 -1 -46 -28 -91 -61z m118 -25 l28 -27 -42 -60 c-29 -41 -54 -65
-82 -77 -25 -12 -100 -79 -205 -184 l-164 -166 -28 27 -29 27 170 171 c93 93
176 184 183 202 12 29 109 111 132 113 6 0 22 -12 37 -26z m-442 -640 c-12
-12 -32 -25 -46 -29 -45 -11 -72 -36 -97 -88 -18 -38 -69 -96 -193 -219 -140
-139 -174 -167 -205 -173 -70 -13 -133 18 -162 79 -39 83 -17 122 176 313 106
104 169 159 206 177 51 26 92 73 92 105 0 8 10 25 22 38 l22 24 103 -103 103
-102 -21 -22z"/>
<path d="M283 377 c-131 -130 -153 -157 -153 -183 0 -38 27 -64 66 -64 24 0
55 25 183 154 131 131 154 159 154 185 0 42 -19 61 -61 61 -33 0 -49 -12 -189
-153z m207 96 c0 -20 -278 -303 -298 -303 -7 0 -15 7 -19 16 -4 11 36 58 138
160 136 136 179 167 179 127z"/>
</g>
</svg>
